<svg version="1.1" id="Layer_1" xmlns="http://www.w3.org/2000/svg" xmlns:xlink="http://www.w3.org/1999/xlink" x="0px" y="0px"
	 width="100%" viewBox="0 0 64 64" enable-background="new 0 0 64 64" xml:space="preserve">
<path fill="#000000" opacity="1.000000" stroke="none" 
	d="
M39.000011,65.000000 
	C26.024467,65.000000 13.548928,65.000000 1.036694,65.000000 
	C1.036694,43.732925 1.036694,22.465776 1.036694,1.099313 
	C22.224968,1.099313 43.450554,1.099313 64.838074,1.099313 
	C64.838074,22.332338 64.838074,43.666061 64.838074,65.000000 
	C56.466721,65.000000 47.983368,65.000000 39.000011,65.000000 
M10.019891,31.921652 
	C10.013294,38.087330 10.090115,44.254658 9.968367,50.418064 
	C9.896975,54.032196 11.101109,56.047501 15.058154,56.040382 
	C19.102037,56.033108 20.103966,53.848583 20.032459,50.301678 
	C19.913340,44.393059 19.999981,38.480289 19.999981,31.680836 
	C23.163067,35.548073 25.542698,38.786678 28.267216,41.703091 
	C31.493412,45.156513 34.706013,45.091480 37.900108,41.559402 
	C40.548759,38.630482 42.893074,35.426346 45.999809,31.563873 
	C45.999809,35.770275 45.875889,38.901180 46.030731,42.018234 
	C46.230667,46.043110 46.653469,50.056908 47.289570,54.780647 
	C52.858303,57.497704 55.965034,55.890976 55.983822,50.196499 
	C56.001663,44.787571 55.891090,39.378220 55.980438,33.045616 
	C55.986923,27.551996 56.031296,22.058079 55.988003,16.564852 
	C55.952885,12.108913 53.930435,9.889596 50.006104,11.207528 
	C47.339481,12.103075 45.045300,14.693186 43.077312,16.954359 
	C39.609127,20.939228 36.517548,25.251873 33.056808,29.699049 
	C30.687588,27.020489 28.870617,24.966284 26.797478,22.276108 
	C24.176212,18.987181 21.845324,15.386225 18.800377,12.552572 
	C17.455755,11.301255 14.476853,10.930884 12.594299,11.448805 
	C11.393322,11.779213 10.211888,14.435962 10.118132,16.111034 
	C9.841383,21.055523 10.110249,26.030548 10.019891,31.921652 
z"/>
<path fill="#37D0EE" opacity="1.000000" stroke="none" 
	d="
M46.980297,54.075478 
	C46.653469,50.056908 46.230667,46.043110 46.030731,42.018234 
	C45.875889,38.901180 45.999809,35.770275 45.999809,31.563873 
	C42.893074,35.426346 40.548759,38.630482 37.900108,41.559402 
	C34.706013,45.091480 31.493412,45.156513 28.267216,41.703091 
	C25.542698,38.786678 23.163067,35.548073 19.999981,31.680836 
	C19.999981,38.480289 19.913340,44.393059 20.032459,50.301678 
	C20.103966,53.848583 19.102037,56.033108 15.058154,56.040382 
	C11.101109,56.047501 9.896975,54.032196 9.968367,50.418064 
	C10.090115,44.254658 10.013294,38.087330 10.436079,31.382067 
	C14.310979,29.443022 15.119840,26.689840 15.068016,23.242598 
	C15.038588,21.285048 15.662318,19.317682 15.991897,17.354736 
	C16.479700,17.312622 16.967503,17.270506 17.455305,17.228390 
	C18.849688,22.492487 21.472080,25.464241 27.053646,22.912079 
	C28.870617,24.966284 30.687588,27.020489 33.056808,29.699049 
	C36.517548,25.251873 39.609127,20.939228 43.077312,16.954359 
	C45.045300,14.693186 47.339481,12.103075 50.006104,11.207528 
	C53.930435,9.889596 55.952885,12.108913 55.988003,16.564852 
	C56.031296,22.058079 55.986923,27.551996 55.555374,33.586311 
	C51.205936,35.228588 50.778027,38.344528 51.035839,41.632717 
	C51.408642,46.387489 51.091049,50.824268 46.980297,54.075478 
z"/>
<path fill="#72DEF3" opacity="1.000000" stroke="none" 
	d="
M26.925562,22.594093 
	C21.472080,25.464241 18.849688,22.492487 17.455305,17.228390 
	C16.967503,17.270506 16.479700,17.312622 15.991897,17.354736 
	C15.662318,19.317682 15.038588,21.285048 15.068016,23.242598 
	C15.119840,26.689840 14.310979,29.443022 10.508946,30.918053 
	C10.110249,26.030548 9.841383,21.055523 10.118132,16.111034 
	C10.211888,14.435962 11.393322,11.779213 12.594299,11.448805 
	C14.476853,10.930884 17.455755,11.301255 18.800377,12.552572 
	C21.845324,15.386225 24.176212,18.987181 26.925562,22.594093 
z"/>
<path fill="#2FB1CB" opacity="1.000000" stroke="none" 
	d="
M47.134933,54.428062 
	C51.091049,50.824268 51.408642,46.387489 51.035839,41.632717 
	C50.778027,38.344528 51.205936,35.228588 55.483646,34.048031 
	C55.891090,39.378220 56.001663,44.787571 55.983822,50.196499 
	C55.965034,55.890976 52.858303,57.497704 47.134933,54.428062 
z"/>
</svg>